<svg width="40" height="40" viewBox="0 0 40 40" fill="none" xmlns="http://www.w3.org/2000/svg">
<g id="cil:location-pin">
<path id="Vector" d="M19.8379 9.96826C18.849 9.96826 17.8823 10.2615 17.0601 10.8109C16.2378 11.3603 15.597 12.1412 15.2185 13.0548C14.8401 13.9685 14.7411 14.9738 14.934 15.9437C15.1269 16.9136 15.6031 17.8045 16.3024 18.5038C17.0017 19.2031 17.8926 19.6793 18.8625 19.8722C19.8324 20.0651 20.8377 19.9661 21.7514 19.5877C22.665 19.2092 23.4459 18.5684 23.9953 17.7461C24.5447 16.9239 24.8379 15.9572 24.8379 14.9683C24.8364 13.6426 24.3092 12.3717 23.3718 11.4344C22.4345 10.497 21.1636 9.96977 19.8379 9.96826ZM19.8379 17.4683C19.3435 17.4683 18.8601 17.3216 18.449 17.0469C18.0379 16.7722 17.7175 16.3818 17.5282 15.925C17.339 15.4682 17.2895 14.9655 17.386 14.4805C17.4824 13.9956 17.7205 13.5501 18.0702 13.2005C18.4198 12.8509 18.8653 12.6128 19.3502 12.5163C19.8352 12.4198 20.3378 12.4693 20.7947 12.6586C21.2515 12.8478 21.6419 13.1682 21.9166 13.5793C22.1913 13.9905 22.3379 14.4738 22.3379 14.9683C22.3372 15.6311 22.0735 16.2665 21.6049 16.7352C21.1362 17.2039 20.5008 17.4675 19.8379 17.4683Z" fill="#3A98B2"/>
<g id="Vector_2">
<path d="M29.4459 5.35304C27.0703 2.97807 23.8992 1.56724 20.5446 1.39285C17.19 1.21845 13.8897 2.29285 11.2807 4.40868C8.67167 6.52452 6.93886 9.53179 6.41671 12.8501C5.89456 16.1684 6.62009 19.5625 8.45326 22.3773L17.8991 36.8783C18.1093 37.201 18.3967 37.4661 18.7353 37.6496C19.0739 37.8332 19.4529 37.9293 19.838 37.9293C20.2231 37.9293 20.6021 37.8332 20.9407 37.6496C21.2792 37.4661 21.5666 37.201 21.7769 36.8783L31.223 22.3773C32.924 19.7662 33.6757 16.6497 33.3522 13.5502C33.0286 10.4507 31.6495 7.55662 29.4459 5.35304ZM29.1283 21.0127L19.838 35.2744L10.5476 21.0127C7.70388 16.6472 8.31381 10.805 11.9979 7.12077C13.0274 6.09117 14.2497 5.27444 15.595 4.71722C16.9402 4.16001 18.382 3.87321 19.838 3.87321C21.2941 3.87321 22.7359 4.16001 24.0811 4.71722C25.4263 5.27444 26.6486 6.09117 27.6782 7.12077C31.3622 10.805 31.9721 16.6472 29.1283 21.0127Z" fill="#F2B91D"/>
<path d="M29.1283 21.0127L19.838 35.2744L10.5476 21.0127C7.70388 16.6472 8.31381 10.805 11.9979 7.12077C13.0274 6.09117 14.2497 5.27444 15.595 4.71722C16.9402 4.16001 18.382 3.87321 19.838 3.87321C21.2941 3.87321 22.7359 4.16001 24.0811 4.71722C25.4263 5.27444 26.6486 6.09117 27.6782 7.12077C31.3622 10.805 31.9721 16.6472 29.1283 21.0127Z" fill="#F2B91D"/>
</g>
<circle id="Ellipse 12" cx="20" cy="14.4445" r="6.66667" fill="white"/>
</g>
</svg>
